<svg id="Layer_1" data-name="Layer 1" xmlns="http://www.w3.org/2000/svg" viewBox="0 0 120.5 120.5"><defs><style>.cls-1{fill:#ca8e88;}.cls-2{fill:#fff;}</style></defs><title>icoCerdo</title><circle class="cls-1" cx="60.25" cy="60.25" r="60.25"/><path class="cls-1" d="M107.66,72.6c.18-.51,1.16-1.85,1.05-2.58s-.18-1.12-1.27-2.25-1.85-2-2-3.08a3.45,3.45,0,0,1,.73-2.14,14.59,14.59,0,0,0,3.33-11c-.09-1-1.31-5.94-3.3-8.28s-2.28-2.86-2.35-2.94c.16,0,3.28.85,4.14.25s.36-1.2-.22-1.2-2.69,0-3.42-.11a2.37,2.37,0,0,1-1.2-.47s1.49-1.24,1.63-2.25.29-3.19-1.27-4.06a2.9,2.9,0,0,0-3.42.69,3,3,0,0,0-.62,2.28,9.39,9.39,0,0,1,.18,1.2s-2.56-.92-4.55-1.43c-3.15-.81-5.43-.47-8.3-.51a57.2,57.2,0,0,0-8,1c-6.83.79-10.14.36-22.33,1.94-6.08.78-12.46,2-18.5,3.13h0l-.34.06c-1.39.26-2.84.4-4.3.53l-.35.07a15.79,15.79,0,0,0-7.77,3.47c-.05,0-.1-.09-.15-.13a10.85,10.85,0,0,0-1.51-1.13A16.84,16.84,0,0,0,22,42.87a6.24,6.24,0,0,0-1.15-.44c-.28-.07-.57-.09-.85-.14a8.43,8.43,0,0,1-2.15-.61,4.28,4.28,0,0,0-.17,2.85.61.61,0,0,0,.25.32,12.49,12.49,0,0,0-1.68-.52.67.67,0,0,0-.7.22,2.3,2.3,0,0,0,1.07,1.22,1.66,1.66,0,0,1,1.17,1.19,2.8,2.8,0,0,0,1,1.92c.89.76.89,1.43,1.83,1.74s1.07.51,1.07.51a8.39,8.39,0,0,0-1.2,1.73A6,6,0,0,1,19,55.23c-.7.49-2.84,1.73-3.31,2a9.29,9.29,0,0,0-2.19,1.73l-1.93.35c-.63.11-.71.35-.57.81s.62,1,.88,1.62.16,1.79.81,2.19a4.5,4.5,0,0,0,1.36.54s-.21.62.6,1a10,10,0,0,0,3.55.59c.52-.11.53.33,1.75.46,2.3.24,4.09-.41,6.65-.81,2-.31,6.14,1.06,6.93,1.49s1.41,1.83,2.27,2.58c.43,1,.8,1.6.7,1.76a7.44,7.44,0,0,0-.28,2,5.16,5.16,0,0,1-.38,2.1,8.29,8.29,0,0,0-.43,2.1,17.58,17.58,0,0,1-1.14,3.24c-.38.48-1.76,1.91-2,2.14l-.19.2a.47.47,0,0,0,.27.78,9.28,9.28,0,0,0,3,.11c1.62-.28,3.34-.9,3.53-1.48s-.09-2.19.9-3.24c.39-.41,1-1,1.62-1.72a3,3,0,0,1-.27.75,9.32,9.32,0,0,0-.48,2.37,20.13,20.13,0,0,1-1.29,3.66c-.43.54-2,2.15-2.26,2.42-.1.1-.24.26-.38.41a.39.39,0,0,0,.22.65,11,11,0,0,0,3.66.18c1.83-.32,3.77-1,4-1.67s-.11-2.48,1-3.66,3.93-4,4.25-5.6a43.3,43.3,0,0,1,1.62-4.74c.32-1,1.67-2.27,2.1-3.13a11.12,11.12,0,0,1,.68-1.08c1.07,0,2,.06,2.15.09a39.64,39.64,0,0,0,15.33-.26,62.69,62.69,0,0,0,7-2c1.87-.62,3.52-2.35,5.58-2.29a11.59,11.59,0,0,1,2.54.42c.39,1.08,2.11,6.3,2.35,7.16s.23,2-.06,2.28A9.08,9.08,0,0,0,88,75.91c-.15.48-1.31,2.62-1.7,3.39s-.73,1.31-1,1.79-.63.68-1.21,1.21-1.3,1-1,1.26a2.82,2.82,0,0,0,1.54.39,5.62,5.62,0,0,0,2.45-.15c.45-.29.32-.73.7-.92a10.61,10.61,0,0,0,2.51-2.42c.44-.78,2.66-4.31,3.1-4.89a16.11,16.11,0,0,1,1.45-2.42c.63-.58,1.26-1,1.4-1.79s.33-1.32-.05-1.7a2.14,2.14,0,0,1-.77-1.88,5.54,5.54,0,0,1,.05-1.46,21.86,21.86,0,0,1,2.08,3.11,29.86,29.86,0,0,0,2.58,3.68c.69,1.06,1.34,1.4,1.54,4.37s.47,6.27.47,6.92a9.48,9.48,0,0,1-.55,1.3c-.18.25-.91,1.2-.87,1.41a7.62,7.62,0,0,0,4.54-.33,2.5,2.5,0,0,0,1.38-1.88c0-.28.36.42.5.53a.41.41,0,0,0,.63-.1,4.43,4.43,0,0,0-.07-2.83c-1.27-2.2-.87-4.39-.65-6.16A29.78,29.78,0,0,1,107.66,72.6Zm-6.24-36.19s-.68-1.44,0-2.18a.71.71,0,0,1,1.27.36C102.72,34.85,102.87,35.67,101.43,36.41Z"/><path class="cls-1" d="M38,40.82l-.34.06c-1.39.26-2.84.4-4.3.53.84-.16,1.64-.27,2.37-.36S37.3,40.86,38,40.82Z"/><path class="cls-1" d="M33,41.45l0,0,.35-.07Z"/><path class="cls-2" d="M107.66,72.6c.18-.51,1.16-1.85,1.05-2.58s-.18-1.12-1.27-2.25-1.85-2-2-3.08a3.45,3.45,0,0,1,.73-2.14,14.59,14.59,0,0,0,3.33-11c-.09-1-1.31-5.94-3.3-8.28s-2.28-2.86-2.35-2.94c.16,0,3.28.85,4.14.25s.36-1.2-.22-1.2-2.69,0-3.42-.11a2.37,2.37,0,0,1-1.2-.47s1.49-1.24,1.63-2.25.29-3.19-1.27-4.06a2.9,2.9,0,0,0-3.42.69,3,3,0,0,0-.62,2.28,9.39,9.39,0,0,1,.18,1.2s-2.56-.92-4.55-1.43c-3.15-.81-5.43-.47-8.3-.51a57.2,57.2,0,0,0-8,1c-6.83.79-10.14.36-22.33,1.94-6.08.78-12.46,2-18.5,3.13h0l-.34.06c-1.39.26-2.84.4-4.3.53l-.35.07a15.79,15.79,0,0,0-7.77,3.47c-.05,0-.1-.09-.15-.13a10.85,10.85,0,0,0-1.51-1.13A16.84,16.84,0,0,0,22,42.87a6.24,6.24,0,0,0-1.15-.44c-.28-.07-.57-.09-.85-.14a8.43,8.43,0,0,1-2.15-.61,4.28,4.28,0,0,0-.17,2.85.61.61,0,0,0,.25.32,12.49,12.49,0,0,0-1.68-.52.67.67,0,0,0-.7.22,2.3,2.3,0,0,0,1.07,1.22,1.66,1.66,0,0,1,1.17,1.19,2.8,2.8,0,0,0,1,1.92c.89.76.89,1.43,1.83,1.74s1.07.51,1.07.51a8.39,8.39,0,0,0-1.2,1.73A6,6,0,0,1,19,55.23c-.7.49-2.84,1.73-3.31,2a9.29,9.29,0,0,0-2.19,1.73l-1.93.35c-.63.11-.71.35-.57.81s.62,1,.88,1.62.16,1.79.81,2.19a4.5,4.5,0,0,0,1.36.54s-.21.62.6,1a10,10,0,0,0,3.55.59c.52-.11.53.33,1.75.46,2.3.24,4.09-.41,6.65-.81,2-.31,6.14,1.06,6.93,1.49s1.41,1.83,2.27,2.58c.43,1,.8,1.6.7,1.76a7.44,7.44,0,0,0-.28,2,5.16,5.16,0,0,1-.38,2.1,8.29,8.29,0,0,0-.43,2.1,17.58,17.58,0,0,1-1.14,3.24c-.38.48-1.76,1.91-2,2.14l-.19.2a.47.47,0,0,0,.27.78,9.28,9.28,0,0,0,3,.11c1.62-.28,3.34-.9,3.53-1.48s-.09-2.19.9-3.24c.39-.41,1-1,1.62-1.72a3,3,0,0,1-.27.75,9.32,9.32,0,0,0-.48,2.37,20.13,20.13,0,0,1-1.29,3.66c-.43.54-2,2.15-2.26,2.42-.1.1-.24.26-.38.41a.39.39,0,0,0,.22.65,11,11,0,0,0,3.66.18c1.83-.32,3.77-1,4-1.67s-.11-2.48,1-3.66,3.93-4,4.25-5.6a43.3,43.3,0,0,1,1.62-4.74c.32-1,1.67-2.27,2.1-3.13a11.12,11.12,0,0,1,.68-1.08c1.07,0,2,.06,2.15.09a39.64,39.64,0,0,0,15.33-.26,62.69,62.69,0,0,0,7-2c1.87-.62,3.52-2.35,5.58-2.29a11.59,11.59,0,0,1,2.54.42c.39,1.08,2.11,6.3,2.35,7.16s.23,2-.06,2.28A9.08,9.08,0,0,0,88,75.91c-.15.48-1.31,2.62-1.7,3.39s-.73,1.31-1,1.79-.63.68-1.21,1.21-1.3,1-1,1.26a2.82,2.82,0,0,0,1.54.39,5.62,5.62,0,0,0,2.45-.15c.45-.29.32-.73.7-.92a10.61,10.61,0,0,0,2.51-2.42c.44-.78,2.66-4.31,3.1-4.89a16.11,16.11,0,0,1,1.45-2.42c.63-.58,1.26-1,1.4-1.79s.33-1.32-.05-1.7a2.14,2.14,0,0,1-.77-1.88,5.54,5.54,0,0,1,.05-1.46,21.86,21.86,0,0,1,2.08,3.11,29.86,29.86,0,0,0,2.58,3.68c.69,1.06,1.34,1.4,1.54,4.37s.47,6.27.47,6.92a9.48,9.48,0,0,1-.55,1.3c-.18.25-.91,1.2-.87,1.41a7.62,7.62,0,0,0,4.54-.33,2.5,2.5,0,0,0,1.38-1.88c0-.28.36.42.5.53a.41.41,0,0,0,.63-.1,4.43,4.43,0,0,0-.07-2.83c-1.27-2.2-.87-4.39-.65-6.16A29.78,29.78,0,0,1,107.66,72.6Zm-6.24-36.19s-.68-1.44,0-2.18a.71.71,0,0,1,1.27.36C102.72,34.85,102.87,35.67,101.43,36.41Z"/><path class="cls-2" d="M38,40.82l-.34.06c-1.39.26-2.84.4-4.3.53.84-.16,1.64-.27,2.37-.36S37.3,40.86,38,40.82Z"/><path class="cls-2" d="M33,41.45l0,0,.35-.07Z"/></svg>