<svg id="Layer_1" data-name="Layer 1" xmlns="http://www.w3.org/2000/svg" viewBox="0 0 120.5 120.5"><defs><style>.cls-1{fill:#a87c4f;}.cls-2{fill:#fff;}</style></defs><title>icoCharcu</title><circle class="cls-1" cx="60.25" cy="60.25" r="60.15"/><path class="cls-2" d="M94.19,35S90.74,21.57,76.44,24.47c0,0-10.22,1.36-8.88,15.22,0,0,3.3,17.57-27.15,36.58,0,0-10.71,6.18-7.86,15.79,0,0,3.87,9.8,12.93,10.5,0,0,19,3.15,38.63-25.29C84.1,77.27,101,54.26,94.19,35ZM50.31,73.48c6.71,5.08,11,15.6,11,15.6C51.25,79.42,50.31,73.48,50.31,73.48ZM62.2,62.24C70.32,64.42,77.9,72.41,77.9,72.41,65,67.29,62.2,62.24,62.2,62.24ZM71.85,44c8.47.78,17.21,7.29,17.21,7.29C75.41,48.43,71.85,44,71.85,44Z"/><path class="cls-2" d="M76.08,23.52a11.82,11.82,0,0,1,5.74-.44A8.36,8.36,0,0,1,83.74,18s-1.26-.8-2.68.91c0,0-1.84-2-2.7,0,0,0-2.8-2.35-2.63.81a4.76,4.76,0,0,0-4.17-.94S75.93,22.23,76.08,23.52Z"/><path class="cls-2" d="M24.69,90.18a4.62,4.62,0,0,0,2.92,3c-2.71,1.55.69,2.62.69,2.62-1.19,1.81,1.43,2.26,1.43,2.26-.69,2.14.64,2.77.64,2.77a8.43,8.43,0,0,1,3.21-4.35,11.69,11.69,0,0,1-2.63-5C29.81,92,24.69,90.18,24.69,90.18Z"/></svg>