<svg id="Layer_1" data-name="Layer 1" xmlns="http://www.w3.org/2000/svg" viewBox="0 0 120.5 120.5"><defs><style>.cls-1{fill:#f9a719;}.cls-2{fill:#fff;}</style></defs><title>icoPollo</title><circle class="cls-1" cx="60.25" cy="60.25" r="60.25"/><path class="cls-2" d="M25.86,32.43c-.09-.09-.12-.25-.22-.37a3.46,3.46,0,0,1-.27-.33,3.35,3.35,0,0,1-.23-.36,2.43,2.43,0,0,1-.2-.83,3.16,3.16,0,0,1-.12-.42,3.69,3.69,0,0,1,0-.43c0-.14.09-.27.12-.41s.07-.3.1-.44,0-.32,0-.45.14-.3.16-.42,0-.34,0-.45c.09-.44-.12-.43.11-.43s.31.17.49,0,0-.23,0-.42,0-.2,0-.4,0-.2,0-.4-.08-.26.09-.36.14.11.32.2.23,0,.41.08.17.11.35.19.16.13.34.22.16.19.36.2-.08-.19-.14-.44,0-.27-.08-.43-.07-.28-.09-.43,0-.29-.06-.44.09-.29.1-.44-.08-.3-.06-.44a2.26,2.26,0,0,1,.15-.43c.19.06.18.11.33.23s.12.16.27.29.16.11.31.24.11.17.26.3.19.08.34.21.12.16.31.21,0-.11,0-.37,0-.26,0-.42,0-.27.05-.41,0-.28,0-.42,0-.29,0-.42.07-.28.12-.4a3.07,3.07,0,0,1,.21-.36,1.48,1.48,0,0,1,.16-.33,1,1,0,0,1,.23.37c.1.2.16.17.26.37s.09.21.19.4l.21.4c.1.2.12.19.22.39s0,.25.16.41,0-.13.13-.36l.14-.37c0-.12.14-.22.19-.35s0-.28,0-.4.15-.22.2-.34l.15-.36c.06-.13.12-.25.17-.36s.12-.37.16-.39.11.19.22.42.14.25.2.4.13.27.18.41.11.28.16.42.05.32.09.44,0,.37.19.39,0-.16.14-.39.18-.22.25-.37.07-.29.13-.42.19-.24.25-.36.07-.31.13-.42.21-.33.25-.33.11.12.18.34L35,22l.12.4c0,.14.06.28.09.4s-.07.29.12.37.11-.07.28-.21.23-.1.35-.18.15-.24.25-.31.28-.07.37-.13.3-.25.33-.22,0,.2.14.37.18.19.24.31l.17.35c.1.2,0,.35.15.38s.16-.1.3-.15.22-.08.23.07,0,.28,0,.47.05.31.07.46,0,.24.11.44.14.06.32.25.1.24.18.38.18.24.17.35a.53.53,0,0,1-.21.32.93.93,0,0,1-.3.24,1.08,1.08,0,0,0-.29.18,3,3,0,0,0-.28.22,1.21,1.21,0,0,1-.27.22c-.16.11-.13.15-.3.24s-.18.06-.35.16-.16.11-.33.2-.22,0-.36.14.16,0,.42,0,.24.12.39.14.27,0,.42,0l.4.09c.12,0,.23.15.37.2s.28,0,.41.07.22.16.35.22l.37.18c.12.06.27.07.39.14l.35.22c.11.07.19.21.3.29s.26.1.37.19.19.19.3.28.22.16.32.25.15.24.25.33.21.17.31.27.21.17.3.28.17.22.26.33.2.19.29.31l.25.33c.08.11.15.24.23.35l.24.34c.08.11.09.27.17.39s.23.18.3.3.12.25.19.37.13.24.2.36.13.25.2.37l.21.36c.07.12.11.26.17.38s.23.19.29.31.11.26.18.38l.2.37c.07.12.16.23.23.35s.06.28.13.4.17.23.23.35.18.22.24.34.07.28.14.4.18.22.25.34.1.26.17.38l.22.36.22.36.22.35c.07.12.18.22.25.33s.11.26.19.38.2.2.28.31l.25.33c.08.11.15.24.23.34s.12.26.21.37.25.16.34.25.2.19.3.28.18.22.28.31.19.22.29.31.26.13.36.22l.33.26c.11.09.21.19.32.27s.25.13.37.21.19.22.31.29.25.13.37.2l.38.19c.12.07.23.18.35.24l.39.17.4.15.4.12c.13,0,.29,0,.43,0s.25.16.39.19l.41.1c.14,0,.28,0,.42,0l.42.05.42.06c.14,0,.28,0,.42,0l.42,0c.14,0,.28,0,.42,0l.42,0c.14,0,.28,0,.42,0s.28.09.42.09.28-.07.42-.07l.42,0,.42,0c.14,0,.28.08.43.07s.28-.07.42-.08h.42c.14,0,.27-.07.42-.08s.29.05.43,0,.27-.08.41-.09l.42,0c.14,0,.29,0,.42,0l.42,0,.42,0,.42,0c.14,0,.27-.11.41-.13l.42,0c.14,0,.28,0,.42,0l.42,0c.14,0,.27-.12.41-.13l.42-.05.41-.06.42,0c.14,0,.29,0,.42,0l.41-.09c.14,0,.29,0,.42,0s.27-.12.4-.15.28,0,.42,0,.28,0,.42,0,.27-.11.4-.14.29,0,.42,0l.41-.09.41-.08.41-.11.41-.08c.14,0,.25-.16.38-.19l.4-.1.4-.12c.14,0,.31,0,.43,0s.23-.2.35-.25.3-.05.41-.11.19-.16.33-.27.2-.18.32-.28.22-.16.33-.26l.33-.27c.1-.09.23-.16.34-.26s.19-.21.29-.31.17-.23.28-.33.25-.14.35-.24l.32-.28c.1-.09.16-.24.26-.34s.23-.16.34-.26l.31-.29c.1-.1.23-.17.33-.27s.17-.23.27-.33.22-.17.33-.27.25-.15.35-.25l.32-.28c.1-.1.18-.22.29-.31l.3-.3c.1-.1.24-.16.34-.25l.3-.3.33-.27.31-.29.31-.29c.11-.09.19-.21.3-.3l.34-.25c.11-.09.19-.22.3-.3l.34-.26.35-.24c.12-.09.26-.13.37-.21s.23-.18.34-.25a4.14,4.14,0,0,1,.4-.15,2.9,2.9,0,0,1,.37-.19c.13,0,.25-.13.38-.17l.4-.12c.13,0,.29,0,.42,0l.4-.12.4-.09c.13,0,.25-.16.38-.19l.41-.06c.14,0,.28,0,.41,0l.41-.05.41-.06c.14,0,.28,0,.42,0h.41c.14,0,.28,0,.42,0s.28,0,.42,0a3.4,3.4,0,0,1,.39.17,2.72,2.72,0,0,1,.39.14,2.26,2.26,0,0,1,.37.19,1.33,1.33,0,0,1,.53.64c.07.12.1.25.15.36s.15.23.19.34a2.76,2.76,0,0,1,.06.39,2.7,2.7,0,0,1,.08.37c0,.26-.09.21,0,.37s.17,0,.38.13a1.9,1.9,0,0,1,.32.26,1.53,1.53,0,0,1,.27.31,1.61,1.61,0,0,1,.13.39,1.72,1.72,0,0,1,.09.4,2.68,2.68,0,0,1-.08.4,2.63,2.63,0,0,1,0,.41c0,.12-.15.23-.2.36s0,.27,0,.38-.19.21-.23.31,0,.28-.06.38a3.08,3.08,0,0,1-.17.32,1.64,1.64,0,0,1,0,.37,1.49,1.49,0,0,1,0,.38,2.54,2.54,0,0,1-.1.37,2.69,2.69,0,0,1-.09.38,3.79,3.79,0,0,1-.16.35c-.06.11-.1.23-.18.35s-.19.24-.26.35-.18.24-.26.35l-.24.36c-.1.15-.22.24-.29.33-.2.28-.43.25-.25.37s.19,0,.41.12a1.23,1.23,0,0,1,.38.19,1,1,0,0,1,.23.35,1.11,1.11,0,0,1,.07.41c0,.14.06.26.05.38a3.39,3.39,0,0,1,0,.38,3.2,3.2,0,0,1-.06.38c-.08.23-.23.14-.18.33s.15.12.29.34a1.67,1.67,0,0,1,.15.43,1.41,1.41,0,0,1,.09.45c0,.14-.12.27-.18.42a1.9,1.9,0,0,1-.12.44,3.17,3.17,0,0,1-.27.34c-.08.1-.19.19-.3.3s-.25.14-.35.24-.18.21-.29.31-.19.2-.3.3-.25.14-.36.23l-.33.26c-.11.09-.19.21-.3.3l-.32.28c-.11.09-.26.13-.37.22s-.2.21-.31.29-.2.21-.3.3l-.32.27c-.12.1-.28.13-.37.21a2.36,2.36,0,0,0-.32.29,2.11,2.11,0,0,0-.12.42c0,.12,0,.28,0,.43s-.09.26-.13.4-.1.26-.14.4-.07.27-.11.41,0,.28-.08.42-.17.23-.22.37-.06.28-.12.41-.13.25-.19.37-.16.23-.24.35-.11.27-.19.38-.17.23-.26.33a3.92,3.92,0,0,1-.3.3,3.57,3.57,0,0,1-.34.25c-.08.05-.09.17-.09.37a2.49,2.49,0,0,0,0,.43c0,.13.12.26.15.41s0,.28.08.42l.11.41c0,.14,0,.29.07.42s.13.27.17.39.14.27.18.39.09.2.08.42,0,.15-.16.35l-.2.33c-.07.1-.2.17-.28.28s-.09.25-.17.36-.17.2-.24.31l-.24.3c-.09.11-.18.2-.26.29a3.54,3.54,0,0,0-.25.35c-.08.11-.13.25-.2.38s-.19.21-.26.34-.08.28-.14.41-.18.23-.24.36l-.17.39c-.05.13-.12.26-.16.4s0,.3-.07.43-.14.26-.17.4a4,4,0,0,0-.09.42c0,.12,0,.27,0,.43s0,.27,0,.43,0,.28,0,.42,0,.28,0,.43,0,.28,0,.43,0,.28,0,.43,0,.28,0,.43-.12.27-.14.41,0,.29,0,.43-.12.26-.15.4-.06.28-.1.41-.08.27-.13.4,0,.29-.1.42-.19.22-.27.34-.13.22-.21.35-.09.26-.17.38-.17.21-.26.32-.18.2-.27.31-.12.26-.21.36-.19.2-.28.3l-.28.3c-.09.1-.2.18-.3.29s-.15.23-.25.33-.17.21-.27.31-.26.13-.36.23-.14.25-.24.34l-.3.28c-.1.1-.25.13-.35.23s-.15.24-.26.33l-.32.27c-.1.09-.19.2-.29.29l-.31.27-.31.28c-.11.09-.24.14-.35.22s-.17.24-.27.32-.29.08-.4.16-.18.22-.29.3l-.34.23-.33.24c-.12.08-.25.13-.36.2s-.25.12-.37.19-.23.16-.35.22-.24.15-.36.21-.27.09-.39.14l-.32.14c0,.13.07.27.09.41s.06.27.09.41,0,.28,0,.42,0,.28,0,.42,0,.28.06.42,0,.28,0,.42.07.27.09.41,0,.28,0,.42,0,.28.06.42.06.27.08.41,0,.28,0,.42.11.27.14.4l.06.42c0,.14,0,.29,0,.43s.11.27.13.4,0,.28.06.42,0,.28,0,.42.1.27.12.41,0,.29,0,.42,0,.29,0,.42.09.28.12.41,0,.29.06.42,0,.3,0,.42a1.69,1.69,0,0,0,.17.39c0,.12,0,.26.1.38s.17.21.23.33.11.24.18.35.1.25.17.36.2.19.28.28.13.25.22.34a1.73,1.73,0,0,0,.34.22c.08,0,.22.08.37.15l.37.15.36.16c.12,0,.23.12.36.17l.37.14c.13,0,.27,0,.39.09l.38.11c.14,0,.25.15.35.19s.41-.11.41.09-.19,0-.41.17l-.37.19c-.12.06-.24.15-.37.2a3.49,3.49,0,0,1-.39.18,1.27,1.27,0,0,1-.42,0c-.13,0-.24-.14-.37-.18s-.29,0-.41,0-.25-.13-.36-.19-.14-.3-.31-.19-.07.13-.07.38.08.27.08.42,0,.29,0,.42a2.53,2.53,0,0,1-.13.41c0,.18-.1.34-.19.37a3.24,3.24,0,0,0-.43.19c-.23.11-.26,0-.39.22s-.12.2-.27.43-.18.31-.35.37a3.34,3.34,0,0,1-.45,0l-.45,0c-.15,0-.3.06-.45.06s-.32,0-.45,0-.29.2-.46.06,0-.18-.11-.31-.27-.12-.23-.27.25-.06.34-.22-.17,0-.42,0h-.42l-.41,0c-.14,0-.28-.06-.42-.06l-.41,0c-.15,0-.29.05-.41.06l-.39,0c-.12,0-.26-.11-.4-.11s-.26,0-.4,0l-.39,0-.4,0-.39,0c-.14,0-.27.1-.39.1h-.4c-.24,0-.2-.1-.4-.07s-.16.12-.41.17-.29,0-.44,0a3.86,3.86,0,0,1-.43,0,1.33,1.33,0,0,1-.41,0,1.57,1.57,0,0,1-.41-.1,2.82,2.82,0,0,1-.33-.25c-.18-.15-.08-.24-.28-.27s-.14,0-.31.16-.17.18-.27.27l-.28.25c-.14.12-.28.2-.29.25a3.62,3.62,0,0,1,0-.37,2.83,2.83,0,0,1,0-.41,1.91,1.91,0,0,1,0-.42.65.65,0,0,1,.28-.34,3.33,3.33,0,0,1,.38-.11,3.46,3.46,0,0,1,.38-.12c.12,0,.26,0,.39,0s.25-.05.39-.06.26,0,.4,0,.26,0,.39,0,.27,0,.42,0,.27,0,.42,0l.42,0c.14,0,.28,0,.42-.06H68l.42-.05.42,0c.14,0,.29,0,.42,0s.28-.07.41-.09l.42-.06.41-.1c.13,0,.25-.14.39-.17l.41-.07c.14,0,.29,0,.43,0s.26-.12.39-.15l.41-.08.41-.1a.65.65,0,0,0,.36-.21,1.29,1.29,0,0,0,0-.42c0-.12-.11-.25-.12-.41s0-.26,0-.41,0-.27,0-.42,0-.27,0-.41,0-.27-.06-.41-.05-.27-.07-.41,0-.28,0-.42,0-.27,0-.41-.12-.26-.14-.4.06-.28,0-.42-.07-.27-.09-.41-.08-.27-.1-.4.06-.29,0-.42-.1-.27-.12-.4,0-.28,0-.41,0-.28,0-.41-.12-.26-.15-.4,0-.28,0-.41,0-.29,0-.42-.1-.27-.13-.4-.06-.27-.09-.4,0-.29,0-.42-.08-.28-.11-.4-.12-.27-.17-.38a2.82,2.82,0,0,0-.14-.4l0,.06c-.1,0-.24,0-.39,0l-.38,0-.39,0-.39,0c-.13,0-.26.07-.39.07s-.27-.1-.38-.11a1.19,1.19,0,0,1-.36-.08,2.26,2.26,0,0,1-.42-.1c-.11-.06-.2-.2-.33-.28s-.27-.07-.41-.15-.23-.16-.36-.23-.26-.1-.39-.17l-.37-.2c-.12-.06-.22-.18-.35-.25l-.38-.19c-.13-.06-.28-.06-.41-.12s-.25-.14-.38-.19l-.39-.17c-.16-.06-.28-.14-.4-.19s-.32-.08-.43-.15a1.17,1.17,0,0,1-.34-.31s0,0,0-.08.3-.24.13-.26-.23.08-.13.26l-.05.07c-.05.1-.11.23-.18.36s-.1.24-.18.36-.13.23-.21.34-.18.2-.27.3-.14.23-.23.33-.21.17-.3.27-.23.14-.33.23-.16.23-.27.31a3.22,3.22,0,0,1-.37.16,2.58,2.58,0,0,1-.37.14l-.45.12c-.14,0-.25.18-.4.23l-.21.34-.22.36c-.07.12-.2.21-.27.33s-.12.26-.19.38-.19.21-.27.33-.11.26-.18.38-.11.26-.19.38-.2.21-.27.33-.13.25-.2.37-.12.26-.19.38-.23.19-.3.31l-.22.36-.23.36c-.07.12-.08.28-.15.4s-.19.22-.26.33-.12.26-.19.38-.19.22-.26.33-.12.26-.19.38-.19.22-.26.34-.14.26-.2.37-.12.28-.18.39a3.7,3.7,0,0,1-.27.33,2.46,2.46,0,0,0-.16.4,3.32,3.32,0,0,0-.15.41,3,3,0,0,0,0,.43c0,.25-.12.23,0,.41s.1.14.31.29l.36.22c.11.07.25.13.38.21s.27.11.39.18.23.18.34.26.22.22.33.28a3.17,3.17,0,0,0,.39.17c.12.07.19.21.29.33a2.66,2.66,0,0,1,.29.33c.12.22.4.35.18.36s-.24-.05-.48-.13a1.44,1.44,0,0,0-.49-.14c-.16,0-.12.08-.26.17s-.18.16-.27.16a1.6,1.6,0,0,1-.37-.18l-.35-.19-.34-.21L55,97.3c-.14-.08-.3-.05-.4-.1s-.2-.19-.3-.22a.56.56,0,0,0-.36-.05c-.22,0-.25-.05-.45,0s0,.18,0,.37a.81.81,0,0,1-.16.3c-.06.09-.11.2-.24.24a1.06,1.06,0,0,0-.31.25,3.67,3.67,0,0,0-.32.24,3.93,3.93,0,0,1-.29.29.64.64,0,0,1-.36.19c-.15,0-.31-.06-.47-.07s-.32.08-.48.07-.34-.09-.48-.08a1.42,1.42,0,0,1-.34,0,2.92,2.92,0,0,1-.34-.09c-.2-.05-.31.12-.31-.06s0-.14.11-.29.13-.14.16-.3-.07-.19-.45-.14l-.4,0-.4,0c-.12,0-.26-.07-.4-.06s-.26.06-.4.06-.27-.06-.4-.06h-.79l-.4,0c-.14,0-.28.1-.4.1s-.3-.05-.45-.05h-.45c-.16,0-.31.05-.45.06s-.31-.08-.45-.07-.31.05-.45.06-.33,0-.45.06l-.41,0c-.15,0-.28.08-.41.09a1,1,0,0,1-.43,0,2,2,0,0,1-.33-.26c-.16-.14-.08-.3-.28-.35s-.14.16-.33.27-.25.08-.36.16-.16.21-.25.3-.2.18-.22.29-.13,0-.14-.27a1.38,1.38,0,0,1,.05-.47.72.72,0,0,1,.26-.41.93.93,0,0,0,.3-.25.74.74,0,0,1,.33-.23,1.4,1.4,0,0,1,.39-.12,3.56,3.56,0,0,1,.4-.07c.12,0,.26.05.41.05h.41c.13,0,.27-.11.4-.12h.41l.41,0,.41-.06.41-.05.41,0c.14,0,.29,0,.41,0l.4-.09c.25,0,.19-.09.39-.12l.4-.06c.2,0,.21,0,.41,0s.19-.07.39-.1l.4,0L48,96l.4-.05c.2,0,.21,0,.41,0s.19-.11.39-.15.21,0,.41,0a1.18,1.18,0,0,0,.4-.09c.2-.09.13-.13.28-.36s.11-.26.21-.39l.25-.36c.08-.11.21-.2.3-.32s.13-.28.22-.39.23-.19.33-.3l.3-.32c.1-.11.23-.2.33-.29s.11-.24.22-.36.18-.19.27-.31.13-.23.22-.35.18-.2.27-.31.21-.18.29-.29l.23-.34c.08-.11.07-.28.15-.39s.18-.21.25-.32.19-.2.26-.32.13-.24.2-.36.13-.24.2-.36.09-.26.16-.38.19-.21.26-.33.15-.23.22-.35.11-.25.17-.37.1-.26.16-.38.14-.24.2-.36.17-.23.22-.35.12-.29.17-.41c-.13,0-.28-.07-.4-.1s-.28,0-.4,0A3,3,0,0,1,55.2,86c-.11-.06-.18-.19-.29-.26a2.49,2.49,0,0,1-.3-.22,3.17,3.17,0,0,1-.32-.28c-.08-.1-.12-.25-.2-.37s-.16-.22-.24-.34-.23-.19-.3-.31l-.2-.37c-.07-.12,0-.29-.11-.42l-.2-.37c-.06-.13-.16-.23-.22-.36s-.11-.26-.16-.39-.17-.23-.22-.36-.1-.26-.16-.39-.07-.28-.12-.41-.09-.27-.14-.4-.14-.25-.2-.38-.08-.28-.13-.4-.16-.24-.22-.37-.05-.29-.1-.41-.14-.25-.19-.38L51,78.41c-.06-.14-.05-.3-.1-.42s-.14-.29-.19-.38a1.67,1.67,0,0,0-.25-.34c-.09-.09-.2-.17-.32-.27s-.26-.1-.38-.19-.2-.18-.31-.27l-.34-.23c-.11-.08-.18-.23-.29-.31s-.27-.09-.39-.17l-.36-.2c-.12-.07-.2-.2-.32-.28s-.26-.1-.38-.17-.26-.1-.38-.17l-.37-.19c-.12-.07-.23-.16-.35-.22s-.22-.17-.34-.24l-.37-.19c-.13-.07-.23-.17-.35-.23s-.29-.07-.4-.12-.21-.17-.35-.23l-.39-.15c-.12-.05-.23-.15-.36-.21l-.37-.18c-.12-.06-.28,0-.41-.12s-.22-.16-.35-.23l-.35-.22c-.11-.07-.21-.17-.33-.25s-.25-.12-.36-.2-.26-.11-.37-.19l-.32-.26c-.11-.08-.16-.23-.27-.32s-.25-.13-.35-.23-.19-.2-.29-.3-.15-.23-.25-.33-.24-.15-.33-.26-.15-.23-.24-.34-.15-.23-.24-.34-.22-.18-.3-.29-.15-.23-.23-.34-.21-.19-.29-.3-.11-.26-.18-.38-.2-.2-.27-.32l-.22-.35c-.07-.12-.08-.27-.15-.39s-.2-.2-.27-.33-.09-.26-.16-.39-.09-.26-.15-.39l-.18-.37c-.06-.13-.1-.26-.16-.39l-.18-.37c-.06-.13-.15-.24-.21-.36s-.14-.24-.2-.36-.07-.27-.13-.4-.15-.24-.21-.36-.16-.23-.22-.36-.09-.27-.15-.39-.07-.27-.13-.4-.22-.2-.28-.33-.09-.26-.15-.39-.1-.26-.16-.39-.18-.22-.24-.35-.05-.28-.11-.41-.1-.26-.16-.39-.14-.24-.2-.37-.15-.24-.21-.36-.09-.26-.15-.39-.09-.26-.15-.39S33,58.2,33,58.07s-.15-.24-.21-.36-.09-.26-.15-.39-.13-.24-.19-.37-.13-.25-.18-.38l-.17-.38c-.05-.13-.07-.27-.13-.4s-.08-.27-.13-.4-.17-.23-.22-.36-.08-.27-.13-.4-.11-.26-.15-.39-.1-.26-.15-.39,0-.3,0-.43S31,53.18,31,53s-.05-.27-.09-.41-.13-.25-.17-.39,0-.28-.07-.41,0-.28-.07-.41-.08-.27-.1-.4-.1-.27-.12-.4-.06-.27-.08-.41,0-.28,0-.42-.06-.27-.07-.41,0-.28,0-.42,0-.28,0-.42,0-.28,0-.41-.06-.28-.05-.42.1-.27.11-.41,0-.28,0-.41,0-.28,0-.41,0-.28,0-.41,0-.28,0-.41.13-.26.14-.4,0-.27.07-.41.06-.27.08-.4,0-.29,0-.42.1-.26.14-.39,0-.29,0-.42.07-.28.11-.4.14-.26.18-.37.12-.26.17-.37a3.4,3.4,0,0,1,.22-.35c.14-.24.29-.18.22-.38s-.17-.07-.41-.19-.21-.15-.35-.24-.26-.1-.39-.19-.21-.18-.33-.27-.24-.15-.35-.25-.17-.22-.27-.33l-.28-.32c-.09-.11-.18-.22-.25-.34s-.12-.26-.18-.38-.1-.26-.16-.39-.19-.23-.23-.37-.05-.28-.09-.42,0-.28,0-.42-.09-.27-.09-.42,0-.28.05-.43.05-.27.07-.42,0-.28.06-.42,0-.28.05-.42.12-.29.16-.43c-.12-.17-.18,0-.45.06a4.15,4.15,0,0,0-.42,0l-.41.08c-.13,0-.24.13-.39.16s-.28,0-.42,0-.27.06-.4.11-.22.18-.35.24-.27.06-.4.12-.23.13-.36.2-.11-.13-.13-.4a1.79,1.79,0,0,1,0-.43,2.93,2.93,0,0,1,.14-.41,2.92,2.92,0,0,1,.13-.41c.06-.12.17-.22.25-.35s.17-.21.26-.34.08-.29.18-.41.2-.17.3-.28S26,32.62,25.86,32.43Z"/></svg>