<svg id="Layer_1" data-name="Layer 1" xmlns="http://www.w3.org/2000/svg" viewBox="0 0 120.5 120.5"><defs><style>.cls-1{fill:#b12024;}.cls-2{fill:#fff;}</style></defs><title>icoRes</title><circle class="cls-1" cx="60.25" cy="60.25" r="60.25"/><path class="cls-2" d="M13.35,41.77c-.89,1.58,1.58,2.42,1.58,2.42-.69.7,1,1.66,1,1.66h2.46c2.37,2.38,6.42,2.51,6.42,2.51,2.47,0,2.81.81,2.81.81A24.55,24.55,0,0,1,33,57.38a68,68,0,0,0,2.33,6.43,14.76,14.76,0,0,0,2.37,5.06c.76,1,1.86,2.5,3,3a2.7,2.7,0,0,1,1.71,2.82c.08-.49.19-1.19.07.24-.19,2,1.11,6.25,1.11,6.25.47.48,0,5.55,0,5.55A7.91,7.91,0,0,1,41.93,89a1.58,1.58,0,0,0-.43,1.35,12.27,12.27,0,0,0,5.22,0c-.3-1,1.45-3.25,1.45-3.25.47-.46-.11-.36-.11-.36l0-5.38c.47-.17.49-1.41.49-1.41.51-.86.32,0,.32,0a24.26,24.26,0,0,1,.34,3c0,4-1,4.8-1,4.8-2,2.78-.7,2.92-.7,2.92l4,0c1.31,0,1.52-1.56,1.52-1.56,0-1.28.36-1.41.36-1.41.26,0,.34-.34.34-.34-1.57-1.58,0-7.44,0-7.44,1.38-2.73,1.7-8.31,1.7-8.31,0-1.19,1.64-1.14,1.64-1.14a39,39,0,0,1,11.23.92l3.64,2a6.51,6.51,0,0,1,1.35-.94,9,9,0,0,0,4.14-2.35c7.43-4.77,8.87-4.65,8.87-4.65,1.49-.3,1.48,2.53,1.48,2.53-.31,4.15,2.45,4.51,2.45,4.51.92,4-.93,9.18-.93,9.18-2.06,3.83-2,5.16-2,5.16C84,91.61,86,90.84,86,90.84c.29.3,4.62,0,4.62,0A8.89,8.89,0,0,0,92,88.14c.82,0,.62-.61.62-.61-1.79-.69.82-6,.82-6,1.65-1.66,3.42-7.59,3.42-7.59a23.8,23.8,0,0,0,2.32,5c.68,1.79,1.36,8.56,1.36,8.56-1,0-2.2,2.17-2.2,2.17-1.58,1.59,2.45,1.25,2.45,1.25,3.29,0,2.68-1.57,2.68-1.57a1.34,1.34,0,0,1,.55-1.12c.87-.59.08-1.14.08-1.14a116.24,116.24,0,0,0-.67-14.08,11.7,11.7,0,0,1,1.61.84s1.21,1.37,1.56-.42c.08-.41.24-.81.34-1.23a18.05,18.05,0,0,0,.28-5.74c-.09-1.07-.18-2.13-.34-3.19,0-3-4.48-21.63-4.48-21.63C100.53,32.16,85.48,36,85.48,36c-8.38,1.36-10.36,2.92-14.26,3.3-4.71.42-10.91-.29-12.18-.76a84.21,84.21,0,0,0-14.37-3.86C41.05,31,34.42,32.1,34.42,32.1c-3.35,1.66-6.48-2-6.48-2-1.27-1.3-2.06,0-2.06,0a.92.92,0,0,0-1,.94H24a29.77,29.77,0,0,0-3.78,3.16c-1.16,2.55-2,2.89-2,2.89a19.7,19.7,0,0,0-3.74,3.54,1.44,1.44,0,0,0-1.13,1.14"/></svg>