<svg id="Layer_1" data-name="Layer 1" xmlns="http://www.w3.org/2000/svg" viewBox="0 0 115 115"><defs><style>.cls-1{fill:#fff;}.cls-2{fill:#f4e83b;}</style></defs><title>Artboard 1</title><polygon points="113.5 57.5 110.22 61.45 112.88 65.85 109.05 69.27 111.03 74.01 106.72 76.82 107.97 81.8 103.29 83.93 103.77 89.05 98.83 90.46 98.55 95.59 93.45 96.25 92.42 101.28 87.28 101.18 85.5 106.01 80.44 105.14 77.97 109.64 73.09 108.03 69.96 112.11 65.38 109.78 61.68 113.35 57.5 110.36 53.32 113.35 49.62 109.78 45.04 112.11 41.91 108.03 37.03 109.64 34.56 105.14 29.49 106 27.72 101.18 22.58 101.28 21.55 96.25 16.45 95.59 16.17 90.46 11.23 89.05 11.71 83.93 7.03 81.8 8.28 76.82 3.97 74.01 5.95 69.27 2.12 65.85 4.79 61.45 1.5 57.5 4.79 53.55 2.12 49.15 5.95 45.73 3.97 40.99 8.28 38.18 7.03 33.2 11.71 31.07 11.23 25.95 16.17 24.54 16.45 19.41 21.55 18.75 22.58 13.71 27.72 13.82 29.5 8.99 34.56 9.86 37.03 5.36 41.91 6.97 45.04 2.89 49.62 5.22 53.32 1.65 57.5 4.64 61.68 1.65 65.38 5.22 69.96 2.89 73.09 6.97 77.97 5.36 80.44 9.86 85.51 8.99 87.28 13.82 92.42 13.72 93.45 18.75 98.55 19.41 98.83 24.54 103.77 25.95 103.29 31.07 107.97 33.2 106.72 38.18 111.03 40.99 109.05 45.73 112.88 49.15 110.22 53.55 113.5 57.5"/><path class="cls-1" d="M57.5,105.35A47.85,47.85,0,1,1,105.35,57.5,47.91,47.91,0,0,1,57.5,105.35Zm0-94.73A46.88,46.88,0,1,0,104.38,57.5,46.93,46.93,0,0,0,57.5,10.62Z"/><path class="cls-1" d="M56.89,100.88h0c-.82,0-1.64,0-2.45-.1a.49.49,0,1,1,.07-1c.79.06,1.6.09,2.4.1a.49.49,0,0,1,0,1Zm2.43,0a.49.49,0,0,1,0-1c.8,0,1.61-.09,2.4-.17a.49.49,0,0,1,.09,1c-.81.08-1.63.14-2.45.17ZM52,100.54H52c-.81-.1-1.63-.23-2.43-.38a.49.49,0,0,1,.18-1c.78.15,1.58.27,2.37.37a.49.49,0,0,1-.06,1Zm12.11-.16a.49.49,0,0,1-.07-1c.79-.12,1.59-.27,2.36-.43a.49.49,0,1,1,.2,1c-.79.17-1.61.32-2.42.45Zm-16.88-.73h-.12c-.79-.2-1.59-.41-2.37-.65a.49.49,0,1,1,.29-.93c.76.23,1.54.45,2.32.64a.49.49,0,0,1-.12,1Zm21.63-.29a.49.49,0,0,1-.13-1c.77-.21,1.54-.45,2.3-.7a.49.49,0,1,1,.31.92c-.77.26-1.56.5-2.35.72ZM42.62,98.23a.48.48,0,0,1-.17,0c-.77-.28-1.54-.59-2.28-.92a.49.49,0,0,1,.39-.89c.73.32,1.48.62,2.23.9a.49.49,0,0,1-.17.94Zm30.88-.41a.49.49,0,0,1-.18-.94c.74-.3,1.48-.62,2.2-1a.49.49,0,1,1,.41.88c-.74.35-1.5.68-2.25,1A.48.48,0,0,1,73.51,97.82ZM38.17,96.28a.48.48,0,0,1-.22-.05c-.73-.37-1.45-.76-2.16-1.17a.49.49,0,1,1,.49-.84c.69.4,1.4.79,2.11,1.15a.49.49,0,0,1-.22.92Zm39.73-.52a.49.49,0,0,1-.23-.91c.7-.38,1.4-.78,2.08-1.2a.49.49,0,1,1,.51.83c-.69.43-1.41.84-2.12,1.23A.48.48,0,0,1,77.9,95.76ZM34,93.84a.49.49,0,0,1-.27-.08c-.68-.45-1.36-.92-2-1.41a.49.49,0,1,1,.58-.78c.64.48,1.31.94,2,1.38a.49.49,0,0,1-.27.89ZM82,93.21a.49.49,0,0,1-.28-.88c.65-.46,1.3-.94,1.93-1.43a.49.49,0,0,1,.6.77c-.64.5-1.31,1-2,1.46A.49.49,0,0,1,82,93.21Zm-52-2.27a.48.48,0,0,1-.31-.11c-.63-.52-1.25-1.07-1.84-1.63a.49.49,0,0,1,.66-.71c.58.54,1.19,1.08,1.8,1.59a.49.49,0,0,1-.31.86Zm55.79-.72a.49.49,0,0,1-.32-.85c.6-.52,1.19-1.07,1.76-1.64a.49.49,0,1,1,.68.69c-.58.57-1.19,1.14-1.8,1.67A.48.48,0,0,1,85.85,90.21ZM26.51,87.62a.49.49,0,0,1-.35-.15c-.56-.59-1.12-1.2-1.65-1.82a.49.49,0,1,1,.74-.63c.52.61,1.06,1.21,1.61,1.78a.49.49,0,0,1-.35.82Zm62.8-.81A.49.49,0,0,1,89,86c.54-.59,1.06-1.2,1.56-1.82a.49.49,0,1,1,.76.61c-.51.63-1.05,1.26-1.6,1.87A.48.48,0,0,1,89.32,86.81Zm-66-2.88a.48.48,0,0,1-.39-.19c-.49-.65-1-1.32-1.43-2a.49.49,0,1,1,.81-.54c.45.66.92,1.32,1.4,2a.49.49,0,0,1-.39.78Zm69-.9a.49.49,0,0,1-.39-.77c.47-.65.92-1.32,1.35-2a.49.49,0,1,1,.82.52c-.44.69-.9,1.37-1.38,2A.49.49,0,0,1,92.37,83ZM20.65,79.9a.49.49,0,0,1-.42-.24c-.42-.7-.82-1.42-1.2-2.14a.49.49,0,0,1,.86-.45c.37.71.76,1.41,1.17,2.1a.49.49,0,0,1-.42.73Zm74.34-1a.49.49,0,0,1-.42-.72c.39-.7.77-1.41,1.12-2.13a.49.49,0,1,1,.87.43c-.36.73-.74,1.47-1.14,2.18A.48.48,0,0,1,95,78.93ZM18.4,75.6a.49.49,0,0,1-.44-.29c-.34-.74-.65-1.51-.94-2.26a.49.49,0,1,1,.91-.35c.28.74.6,1.49.92,2.21a.49.49,0,0,1-.44.69Zm78.71-1a.48.48,0,0,1-.19,0,.49.49,0,0,1-.26-.64c.31-.74.6-1.49.87-2.25a.49.49,0,1,1,.92.32c-.27.77-.57,1.54-.89,2.3A.49.49,0,0,1,97.12,74.56ZM16.66,71.07a.49.49,0,0,1-.46-.34c-.25-.78-.48-1.57-.68-2.36a.49.49,0,1,1,.94-.24c.2.77.42,1.55.67,2.31a.49.49,0,0,1-.31.61ZM98.74,70l-.14,0a.49.49,0,0,1-.33-.6c.22-.76.42-1.54.6-2.32a.49.49,0,1,1,.95.22c-.18.8-.39,1.6-.62,2.38A.49.49,0,0,1,98.74,70ZM15.45,66.37A.49.49,0,0,1,15,66c-.16-.8-.3-1.61-.41-2.42a.49.49,0,0,1,1-.13c.11.79.24,1.59.4,2.37a.49.49,0,0,1-.38.57Zm84.38-1.13h-.08a.49.49,0,0,1-.4-.56c.13-.78.25-1.58.34-2.38a.49.49,0,1,1,1,.11c-.09.81-.21,1.63-.34,2.43A.49.49,0,0,1,99.83,65.24Zm-85-3.68a.49.49,0,0,1-.48-.45c-.07-.81-.11-1.64-.13-2.45a.49.49,0,0,1,.47-.5.49.49,0,0,1,.5.47c0,.8.06,1.6.13,2.4a.49.49,0,0,1-.44.52Zm85.59-1.14h0a.49.49,0,0,1-.46-.51c0-.79.07-1.6.07-2.4s0-1.52-.06-2.27a.49.49,0,0,1,.46-.51.48.48,0,0,1,.51.46c0,.77.06,1.55.06,2.32s0,1.64-.07,2.46A.49.49,0,0,1,100.37,60.41ZM14.65,56.7h0a.49.49,0,0,1-.47-.5c0-.81.07-1.64.14-2.45a.49.49,0,1,1,1,.08c-.07.79-.11,1.6-.14,2.4A.49.49,0,0,1,14.65,56.7Zm85.53-3.43a.49.49,0,0,1-.48-.43c-.09-.79-.2-1.59-.33-2.38a.49.49,0,0,1,1-.16c.13.81.25,1.62.34,2.43a.49.49,0,0,1-.43.54ZM15.07,51.86H15a.49.49,0,0,1-.41-.55c.12-.81.26-1.62.42-2.42a.49.49,0,1,1,1,.19c-.16.78-.29,1.58-.41,2.37A.49.49,0,0,1,15.07,51.86Zm84.31-3.38a.49.49,0,0,1-.47-.38c-.18-.78-.38-1.56-.6-2.33a.49.49,0,1,1,.93-.27c.22.78.43,1.58.61,2.38a.49.49,0,0,1-.37.58ZM16,47.1l-.12,0a.49.49,0,0,1-.35-.59c.21-.79.44-1.58.69-2.36a.49.49,0,1,1,.93.3c-.25.76-.47,1.53-.67,2.31A.49.49,0,0,1,16,47.1Zm82-3.29a.49.49,0,0,1-.46-.33c-.26-.75-.55-1.51-.86-2.24a.49.49,0,1,1,.9-.37c.31.75.61,1.52.88,2.29a.49.49,0,0,1-.3.62ZM17.52,42.48a.49.49,0,0,1-.45-.66c.3-.76.62-1.53,1-2.27a.49.49,0,1,1,.88.4c-.33.72-.64,1.47-.93,2.22A.49.49,0,0,1,17.52,42.48Zm78.66-3.14a.49.49,0,0,1-.44-.27c-.35-.72-.72-1.43-1.1-2.13a.49.49,0,0,1,.85-.47c.39.71.78,1.44,1.13,2.18a.49.49,0,0,1-.44.7ZM19.54,38a.49.49,0,0,1-.43-.71c.38-.72.78-1.44,1.21-2.14a.49.49,0,1,1,.83.5c-.41.69-.81,1.39-1.18,2.1A.49.49,0,0,1,19.54,38Zm74.29-3a.49.49,0,0,1-.41-.23c-.42-.67-.87-1.34-1.34-2a.49.49,0,1,1,.79-.56c.48.67.94,1.35,1.37,2a.49.49,0,0,1-.41.75ZM22,33.88a.49.49,0,0,1-.4-.76c.46-.67.94-1.34,1.44-2a.49.49,0,1,1,.77.59c-.49.63-1,1.29-1.41,1.95A.49.49,0,0,1,22,33.88Zm69-2.74a.49.49,0,0,1-.38-.18c-.5-.62-1-1.23-1.56-1.83a.49.49,0,1,1,.72-.65c.55.61,1.08,1.24,1.59,1.87a.49.49,0,0,1-.38.79ZM25,30a.49.49,0,0,1-.37-.8c.53-.62,1.09-1.23,1.65-1.82a.49.49,0,0,1,.7.67c-.55.57-1.1,1.17-1.62,1.78A.48.48,0,0,1,25,30Zm62.76-2.49a.48.48,0,0,1-.34-.14c-.57-.56-1.16-1.12-1.75-1.64A.49.49,0,0,1,86.3,25c.61.54,1.21,1.11,1.79,1.68a.49.49,0,0,1-.34.83Zm-59.38-1a.49.49,0,0,1-.33-.84c.6-.55,1.22-1.1,1.85-1.62a.49.49,0,1,1,.62.75c-.61.51-1.22,1-1.81,1.58A.49.49,0,0,1,28.37,26.52Zm55.75-2.21a.48.48,0,0,1-.3-.1c-.63-.49-1.27-1-1.93-1.44a.49.49,0,0,1,.56-.8c.67.47,1.33,1,2,1.47a.49.49,0,0,1-.3.87Zm-52-.88a.49.49,0,0,1-.29-.88c.66-.48,1.34-1,2-1.4a.49.49,0,1,1,.53.81c-.67.43-1.33.9-2,1.37A.49.49,0,0,1,32.11,23.43Zm48-1.91a.48.48,0,0,1-.26-.07c-.68-.42-1.38-.83-2.08-1.21a.49.49,0,0,1,.47-.85c.72.39,1.43.81,2.13,1.24a.49.49,0,0,1-.26.9Zm-44-.74a.49.49,0,0,1-.24-.91c.71-.41,1.43-.8,2.16-1.16a.49.49,0,0,1,.44.87c-.71.36-1.42.74-2.11,1.14A.48.48,0,0,1,36.17,20.77Zm39.7-1.58a.49.49,0,0,1-.21,0c-.72-.34-1.47-.67-2.2-1a.49.49,0,0,1,.37-.9c.75.31,1.51.64,2.25,1a.49.49,0,0,1-.21.93ZM40.51,18.6a.49.49,0,0,1-.19-.93c.75-.32,1.51-.63,2.28-.91a.49.49,0,0,1,.33.91c-.75.27-1.5.57-2.23.89A.48.48,0,0,1,40.51,18.6Zm30.85-1.24-.16,0c-.75-.26-1.53-.49-2.3-.71a.49.49,0,1,1,.26-.94c.79.22,1.58.46,2.35.72a.49.49,0,0,1-.16.95Zm-26.3-.44a.49.49,0,0,1-.14-1c.78-.24,1.58-.45,2.37-.65a.49.49,0,0,1,.23.95c-.77.19-1.55.4-2.32.63Zm21.62-.86h-.1c-.78-.17-1.57-.32-2.36-.44a.49.49,0,0,1,.15-1c.8.13,1.62.28,2.42.45a.49.49,0,0,1-.1,1Zm-16.9-.28a.49.49,0,0,1-.09-1c.8-.15,1.62-.27,2.43-.37a.49.49,0,0,1,.12,1c-.79.1-1.59.22-2.37.36Zm12.1-.48h0c-.79-.08-1.6-.14-2.4-.17a.49.49,0,0,1-.46-.51.5.5,0,0,1,.51-.46c.82,0,1.64.1,2.45.18a.49.49,0,0,1,0,1Zm-7.28-.12a.49.49,0,0,1,0-1c.81-.05,1.64-.09,2.46-.1h0a.49.49,0,0,1,0,1c-.8,0-1.61,0-2.4.09Z"/><path class="cls-1" d="M36.72,42.72l1.12,9.09c.45,3.67-2,7-5.1,7.39l-3.46.42a.76.76,0,0,1-.84-.66h-.06a.76.76,0,0,1-.66.84l-2,.24-.12-1a1.17,1.17,0,0,0,1-1.32L24.4,39.68a1.17,1.17,0,0,0-1.3-1l-.12-1,2-.24a.76.76,0,0,1,.84.66h.06a.76.76,0,0,1,.66-.84l2-.25L30,36.78C33.13,36.39,36.27,39,36.72,42.72ZM33,40.14a2.62,2.62,0,0,0-2.88-2.37l-1.43.18a1.19,1.19,0,0,0-1,1.33l2.22,18.06a1.19,1.19,0,0,0,1.33,1l1.43-.18a2.62,2.62,0,0,0,2.23-3Z"/><path class="cls-1" d="M39.84,37.78a1.19,1.19,0,0,0-1.33-1l-.12-1,2-.25a.74.74,0,0,1,.81.66h.09A.74.74,0,0,1,42,35.3l2-.24.12,1a1.19,1.19,0,0,0-1,1.33l2.22,18.06a1.19,1.19,0,0,0,1.33,1l.12,1-2,.24a.74.74,0,0,1-.84-.66h-.09a.74.74,0,0,1-.62.83l-2,.25-.12-1a1.19,1.19,0,0,0,1-1.33Zm-.29-3.63,1.29-2.37a1,1,0,0,1,1.23-.5,1,1,0,0,1,.57,1.29,1,1,0,0,1-.5.54c-.42.18-2.09,1.24-2.09,1.24Z"/><path class="cls-1" d="M64.07,54.34l.12,1-.9.11a.76.76,0,0,1-.84-.66h-.06a.76.76,0,0,1-.66.84l-1.25.15-3.59-8.66-4.27.52-1,7a.91.91,0,0,0,1.11,1.07l.12,1-.9.11a.74.74,0,0,1-.81-.66h-.09a.74.74,0,0,1-.66.84l-.87.11-.12-1c.59-.07.91-.55,1-1.36l3-20.88,1.18-.15,8.15,19.52C63.05,54,63.48,54.41,64.07,54.34Zm-7.61-8.17-2.69-6.5-1,6.95Z"/><path class="cls-1" d="M62.61,64.4l1.12,9.09c.45,3.67-2,7-5.1,7.39l-3.46.42a.76.76,0,0,1-.84-.66h-.06a.76.76,0,0,1-.66.84l-2,.24-.12-1a1.17,1.17,0,0,0,1-1.33L50.29,61.37a1.17,1.17,0,0,0-1.3-1l-.12-1,2-.24a.76.76,0,0,1,.84.66h.06a.76.76,0,0,1,.66-.84l2-.25,1.43-.18C59,58.08,62.16,60.73,62.61,64.4Zm-3.73-2.58A2.62,2.62,0,0,0,56,59.46l-1.43.18a1.19,1.19,0,0,0-1,1.33L55.74,79a1.19,1.19,0,0,0,1.33,1l1.43-.18a2.62,2.62,0,0,0,2.22-3Z"/><path class="cls-1" d="M65.74,59.47a1.19,1.19,0,0,0-1.33-1l-.12-1,2-.25a.74.74,0,0,1,.81.66h.09a.74.74,0,0,1,.66-.84l2-.24.12,1a1.19,1.19,0,0,0-1,1.33l2.22,18.06a1.19,1.19,0,0,0,1.33,1l.12,1-2,.24a.74.74,0,0,1-.84-.66h-.09a.74.74,0,0,1-.62.84l-2,.25-.12-1a1.19,1.19,0,0,0,1-1.33Zm-.29-3.63,1.29-2.37A1,1,0,0,1,68,53a1,1,0,0,1,.57,1.29,1,1,0,0,1-.5.54C67.62,55,65.95,56,65.95,56Z"/><path class="cls-1" d="M90,76l.12,1-.9.11a.76.76,0,0,1-.84-.66h-.06a.76.76,0,0,1-.66.84l-1.25.15-3.59-8.66-4.27.52-1,7a.91.91,0,0,0,1.11,1.07l.12,1-.9.11a.74.74,0,0,1-.81-.66h-.09a.74.74,0,0,1-.66.84l-.87.11-.12-1c.59-.07.91-.55,1-1.36l3-20.88,1.18-.15L88.63,75C88.94,75.71,89.37,76.1,90,76Zm-7.61-8.17-2.69-6.5-1,6.95Z"/><rect class="cls-2" x="60.07" y="33.63" width="29.57" height="0.97" transform="translate(-3.6 9.39) rotate(-7.01)"/><rect class="cls-2" x="63.25" y="39.21" width="27.08" height="0.97" transform="translate(-4.27 9.67) rotate(-7.01)"/><rect class="cls-2" x="65.51" y="44.85" width="25.53" height="0.97" transform="translate(-4.95 9.89) rotate(-7.01)"/><rect class="cls-2" x="27.02" y="77.82" width="24.25" height="0.97" transform="translate(-9.27 5.37) rotate(-7.01)"/><rect class="cls-2" x="26.32" y="72.21" width="22.22" height="0.97" transform="translate(-8.6 5.11) rotate(-7.01)"/><rect class="cls-2" x="25.62" y="66.56" width="20.94" height="0.97" transform="translate(-7.92 4.91) rotate(-7.01)"/></svg>