<?xml version="1.0" encoding="utf-8"?>
<!-- Generator: Adobe Illustrator 20.0.0, SVG Export Plug-In . SVG Version: 6.00 Build 0)  -->
<svg version="1.1" id="Capa_1" xmlns="http://www.w3.org/2000/svg" xmlns:xlink="http://www.w3.org/1999/xlink" x="0px" y="0px"
	 viewBox="0 0 167.8 53" style="enable-background:new 0 0 167.8 53;" xml:space="preserve">
<style type="text/css">
	.st0{fill:#221E1F;}
	.st1{fill:#111516;}
	.st2{fill:url(#SVGID_1_);}
	.st3{fill:#FFFFFF;}
</style>
<g>
	<g>
		<path class="st0" d="M100.1,7.2H113c7.1,0,9.9,4.7,9.9,9.5s-2.8,9.5-9.9,9.5h-6.6v10.7h-6.3C100.1,36.9,100.1,7.2,100.1,7.2z
			 M106.4,21.2h4.9c2.9,0,5.5-0.7,5.5-4.5s-2.6-4.5-5.5-4.5h-4.9V21.2z"/>
		<path class="st0" d="M124.6,15.4h5.4v4h0.1c1-2.7,3.8-4.6,6.6-4.6c0.4,0,0.9,0.1,1.2,0.2v5.5c-0.5-0.1-1.4-0.2-2-0.2
			c-4.2,0-5.6,3.1-5.6,6.9v9.7h-5.7V15.4z"/>
		<path class="st0" d="M148.1,14.8c6.5,0,10.7,4.5,10.7,11.4c0,6.8-4.2,11.3-10.7,11.3s-10.7-4.5-10.7-11.3
			C137.4,19.3,141.6,14.8,148.1,14.8z M148.1,33.1c3.9,0,5-3.5,5-6.9c0-3.5-1.2-6.9-5-6.9s-5,3.5-5,6.9S144.2,33.1,148.1,33.1z"/>
	</g>
	<path class="st0" d="M22.6,28.8L17.5,6.7H8.9v28.2h5.5v-19c0-0.5,0-1.3,0-2.3s0-1.7,0-2.3l5.3,23.6h5.7l5.3-23.7c0,0.5,0,1.3,0,2.3
		s0,1.8,0,2.3v19h5.5V6.7h-8.5L22.6,28.8z"/>
	<path class="st1" d="M54.4,31.9c-0.4,0.7-0.8,1.3-1.2,1.7c-0.4,0.4-1,0.7-1.6,0.9h7.9c0.5-0.9,0.8-1.7,0.9-2.5h-6
		C54.4,32,54.4,31.9,54.4,31.9z"/>
	<path class="st0" d="M45.8,33.7c-1.5-1-2.3-2.7-2.4-5.1h16.4c0-2.1,0-3.7-0.2-4.8c-0.3-1.9-0.9-3.6-1.8-5c-1-1.6-2.3-2.8-3.9-3.6
		c-1.6-0.8-3.3-1.1-5.3-1.1c-3.3,0-6,1.1-8,3.4c-2.1,2.2-3.1,5.5-3.1,9.6c0,3,0.5,5.4,1.6,7.3h8.2C46.8,34.3,46.3,34,45.8,33.7
		 M45.2,20.7c0.8-0.9,2-1.4,3.5-1.4c1.4,0,2.6,0.4,3.5,1.3s1.5,2.1,1.6,3.8H43.6C43.8,22.9,44.4,21.6,45.2,20.7"/>
	<path class="st0" d="M82.1,21.7c0-2.9-1-4.9-2.9-6s-4.1-1.6-6.6-1.6c-3.8,0-6.5,1.1-8,3.2c-1,1.4-1.5,3.1-1.7,5.2h5.7
		c0.1-0.9,0.4-1.7,0.8-2.2c0.6-0.7,1.6-1.1,3-1.1c1.3,0,2.2,0.2,2.9,0.6c0.6,0.4,1,1.1,1,2.1c0,0.8-0.4,1.4-1.3,1.8
		c-0.5,0.2-1.3,0.4-2.3,0.6l-2,0.3c-2.3,0.3-4,0.8-5.2,1.6c-2.1,1.3-3.2,3.5-3.2,6.5c0,0.7,0.1,1.3,0.2,1.9h6.6l0,0
		c-0.6-0.5-0.9-1.3-0.9-2.3c0-1.2,0.5-2.1,1.4-2.7c0.5-0.3,1.4-0.6,2.7-0.9l1.3-0.3c0.7-0.1,1.2-0.3,1.6-0.4
		c0.4-0.2,0.8-0.4,1.1-0.6v2.4c0,2.1-0.6,3.6-1.7,4.4c-0.3,0.2-0.5,0.4-0.8,0.5h8.3c0-0.6,0-1.1,0-1.6V21.7z"/>
	<path class="st0" d="M91,8.4h-5.4v5.8h-2.9v3.9h2.9v12.8c0,1.3,0.3,2.3,0.9,2.9c0.9,1,2.7,1.4,5.3,1.3l2.6-0.1v-4.1
		c-0.2,0-0.4,0-0.5,0c-0.2,0-0.4,0-0.5,0c-1.1,0-1.8-0.1-2-0.3s-0.3-0.7-0.3-1.6V18h3.4v-3.8h-3.4L91,8.4L91,8.4z"/>
	
		<linearGradient id="SVGID_1_" gradientUnits="userSpaceOnUse" x1="1.429" y1="788.5334" x2="168.9058" y2="788.5334" gradientTransform="matrix(1 0 0 1 0 -748)">
		<stop  offset="9.803920e-03" style="stop-color:#FFFFFF"/>
		<stop  offset="5.108036e-02" style="stop-color:#FEE9D1"/>
		<stop  offset="0.1106" style="stop-color:#FCCD95"/>
		<stop  offset="0.1614" style="stop-color:#FAB869"/>
		<stop  offset="0.2007" style="stop-color:#F9AB4E"/>
		<stop  offset="0.2238" style="stop-color:#F9A644"/>
		<stop  offset="1" style="stop-color:#F9A644"/>
	</linearGradient>
	<rect x="8.9" y="34.8" class="st2" width="149.6" height="11.4"/>
	<g>
		<path class="st3" d="M73.1,37.2v5.9h-0.5v-0.7c-0.2,0.3-0.5,0.5-0.8,0.6c-0.3,0.2-0.6,0.2-1,0.2c-0.6,0-1.1-0.2-1.5-0.7
			c-0.4-0.4-0.6-1-0.6-1.6s0.2-1.1,0.6-1.6c0.4-0.4,1-0.7,1.6-0.7c0.4,0,0.7,0.1,1,0.2c0.3,0.1,0.5,0.4,0.7,0.7v-2.3H73.1z
			 M70.9,39.3c-0.3,0-0.6,0.1-0.8,0.2c-0.3,0.2-0.5,0.4-0.6,0.6c-0.2,0.3-0.2,0.6-0.2,0.9c0,0.3,0.1,0.6,0.2,0.9
			c0.2,0.3,0.4,0.5,0.6,0.6c0.3,0.2,0.5,0.2,0.8,0.2s0.6-0.1,0.9-0.2c0.3-0.2,0.5-0.4,0.6-0.6c0.1-0.3,0.2-0.6,0.2-0.9
			c0-0.5-0.2-0.9-0.5-1.2C71.8,39.4,71.4,39.3,70.9,39.3z"/>
		<path class="st3" d="M77.9,41.7l0.5,0.2c-0.2,0.3-0.3,0.5-0.5,0.7s-0.4,0.3-0.7,0.4c-0.2,0.1-0.5,0.1-0.8,0.1
			c-0.7,0-1.2-0.2-1.6-0.7s-0.6-1-0.6-1.5s0.2-1,0.5-1.4c0.4-0.5,1-0.8,1.7-0.8s1.3,0.3,1.7,0.8c0.3,0.4,0.5,0.9,0.5,1.5h-3.9
			c0,0.5,0.2,0.9,0.5,1.2s0.7,0.5,1.1,0.5c0.2,0,0.4,0,0.6-0.1s0.4-0.2,0.5-0.3C77.6,42.2,77.8,42,77.9,41.7z M77.9,40.5
			c-0.1-0.3-0.2-0.5-0.3-0.7c-0.1-0.2-0.3-0.3-0.6-0.4c-0.2-0.1-0.5-0.2-0.7-0.2c-0.4,0-0.8,0.1-1.1,0.4c-0.2,0.2-0.4,0.5-0.5,0.9
			H77.9z"/>
		<path class="st3" d="M79.5,37.2H80v5.9h-0.5V37.2z"/>
		<path class="st3" d="M84.8,41.7l0.5,0.2c-0.2,0.3-0.3,0.5-0.5,0.7s-0.4,0.3-0.7,0.4c-0.2,0.1-0.5,0.1-0.8,0.1
			c-0.7,0-1.2-0.2-1.6-0.7s-0.6-1-0.6-1.5s0.2-1,0.5-1.4c0.4-0.5,1-0.8,1.7-0.8s1.3,0.3,1.7,0.8c0.3,0.4,0.5,0.9,0.5,1.5h-3.8
			c0,0.5,0.2,0.9,0.5,1.2s0.7,0.5,1.1,0.5c0.2,0,0.4,0,0.6-0.1s0.4-0.2,0.5-0.3C84.4,42.2,84.6,42,84.8,41.7z M84.8,40.5
			c-0.1-0.3-0.2-0.5-0.3-0.7c-0.1-0.2-0.3-0.3-0.6-0.4c-0.2-0.1-0.5-0.2-0.7-0.2c-0.4,0-0.8,0.1-1.1,0.4c-0.2,0.2-0.4,0.5-0.5,0.9
			H84.8z"/>
		<path class="st3" d="M86.6,37.1c0.1,0,0.2,0,0.3,0.1c0.1,0.1,0.1,0.2,0.1,0.3s0,0.2-0.1,0.3s-0.2,0.1-0.3,0.1
			c-0.1,0-0.2,0-0.3-0.1c-0.1-0.1-0.1-0.2-0.1-0.3s0-0.2,0.1-0.3C86.3,37.1,86.4,37.1,86.6,37.1z M86.3,38.8h0.5v4.3h-0.5V38.8z"/>
		<path class="st3" d="M88.5,37.3H89v1.6h0.9v0.5H89v3.8h-0.5v-3.8h-0.8v-0.5h0.7v-1.6C88.4,37.3,88.5,37.3,88.5,37.3z"/>
		<path class="st3" d="M95,38.8v4.3h-0.5v-0.7c-0.2,0.3-0.5,0.5-0.8,0.6s-0.6,0.2-0.9,0.2c-0.6,0-1.1-0.2-1.5-0.7
			c-0.4-0.4-0.6-1-0.6-1.6s0.2-1.1,0.6-1.6c0.4-0.4,0.9-0.7,1.6-0.7c0.4,0,0.7,0.1,1,0.2c0.3,0.1,0.5,0.4,0.7,0.7v-0.8L95,38.8
			L95,38.8z M92.8,39.3c-0.3,0-0.6,0.1-0.8,0.2c-0.3,0.2-0.5,0.4-0.6,0.6c-0.2,0.3-0.2,0.6-0.2,0.9c0,0.3,0.1,0.6,0.2,0.9
			c0.2,0.3,0.4,0.5,0.6,0.6c0.3,0.2,0.5,0.2,0.8,0.2s0.6-0.1,0.9-0.2c0.3-0.2,0.5-0.4,0.6-0.6c0.1-0.3,0.2-0.6,0.2-0.9
			c0-0.5-0.2-0.9-0.5-1.2C93.6,39.4,93.2,39.3,92.8,39.3z"/>
		<path class="st3" d="M96.2,38.8h0.5v0.7c0.2-0.3,0.4-0.5,0.6-0.6c0.3-0.2,0.6-0.3,0.9-0.3c0.2,0,0.4,0,0.6,0.1s0.3,0.2,0.5,0.3
			c0.1,0.1,0.2,0.3,0.3,0.6c0.2-0.3,0.4-0.6,0.7-0.8c0.3-0.2,0.6-0.3,0.9-0.3s0.6,0.1,0.8,0.2c0.2,0.1,0.4,0.4,0.5,0.6
			c0.1,0.3,0.2,0.7,0.2,1.2v2.3h-0.6v-2.3c0-0.5,0-0.8-0.1-0.9c-0.1-0.2-0.2-0.3-0.3-0.4c-0.2-0.1-0.3-0.2-0.6-0.2
			c-0.3,0-0.5,0.1-0.7,0.2c-0.2,0.2-0.4,0.4-0.5,0.6c-0.1,0.3-0.2,0.7-0.2,1.3v1.7h-0.5v-2.2c0-0.5,0-0.9-0.1-1
			c-0.1-0.2-0.2-0.3-0.3-0.4c-0.2-0.1-0.3-0.2-0.6-0.2c-0.3,0-0.5,0.1-0.7,0.2c-0.2,0.2-0.4,0.4-0.5,0.6c-0.1,0.3-0.2,0.7-0.2,1.2
			v1.8h-0.5v-4C96.3,38.8,96.2,38.8,96.2,38.8z"/>
		<path class="st3" d="M105.8,38.7c0.7,0,1.2,0.2,1.6,0.7c0.4,0.4,0.6,0.9,0.6,1.5s-0.2,1.1-0.6,1.6c-0.4,0.4-0.9,0.7-1.6,0.7
			c-0.7,0-1.2-0.2-1.6-0.7c-0.4-0.4-0.6-1-0.6-1.6s0.2-1.1,0.6-1.5S105.1,38.7,105.8,38.7z M105.8,39.3c-0.5,0-0.8,0.2-1.2,0.5
			c-0.3,0.3-0.5,0.7-0.5,1.2c0,0.3,0.1,0.6,0.2,0.9c0.1,0.3,0.4,0.5,0.6,0.6c0.3,0.1,0.5,0.2,0.8,0.2s0.6-0.1,0.8-0.2
			c0.3-0.1,0.5-0.4,0.6-0.6c0.1-0.3,0.2-0.6,0.2-0.9c0-0.5-0.2-0.9-0.5-1.2C106.6,39.4,106.2,39.3,105.8,39.3z"/>
		<path class="st3" d="M111.1,39.3l-0.4,0.4c-0.3-0.3-0.6-0.4-0.9-0.4c-0.2,0-0.3,0.1-0.5,0.2c-0.1,0.1-0.2,0.3-0.2,0.4
			c0,0.1,0.1,0.3,0.2,0.4c0.1,0.1,0.3,0.3,0.7,0.5s0.7,0.4,0.8,0.6c0.1,0.2,0.2,0.4,0.2,0.7c0,0.4-0.1,0.6-0.4,0.9
			c-0.2,0.2-0.6,0.4-0.9,0.4c-0.2,0-0.5-0.1-0.7-0.2c-0.2-0.1-0.4-0.3-0.6-0.4l0.3-0.4c0.3,0.3,0.6,0.5,0.9,0.5
			c0.2,0,0.4-0.1,0.6-0.2c0.2-0.1,0.2-0.3,0.2-0.5s-0.1-0.3-0.2-0.4c-0.1-0.1-0.3-0.3-0.7-0.5s-0.6-0.4-0.8-0.6
			c-0.1-0.2-0.2-0.4-0.2-0.7s0.1-0.6,0.3-0.8s0.5-0.3,0.8-0.3C110.4,38.7,110.7,38.9,111.1,39.3z"/>
		<path class="st3" d="M116.5,39.3l-0.4,0.4c-0.3-0.3-0.6-0.4-0.9-0.4c-0.2,0-0.3,0.1-0.5,0.2c-0.1,0.1-0.2,0.3-0.2,0.4
			c0,0.1,0.1,0.3,0.2,0.4c0.1,0.1,0.3,0.3,0.7,0.5s0.7,0.4,0.8,0.6c0.1,0.2,0.2,0.4,0.2,0.7c0,0.4-0.1,0.6-0.4,0.9
			c-0.2,0.2-0.6,0.4-0.9,0.4c-0.2,0-0.5-0.1-0.7-0.2c-0.2-0.1-0.4-0.3-0.6-0.4l0.3-0.4c0.3,0.3,0.6,0.5,0.9,0.5
			c0.2,0,0.4-0.1,0.6-0.2c0.2-0.1,0.2-0.3,0.2-0.5s-0.1-0.3-0.2-0.4c-0.1-0.1-0.3-0.3-0.7-0.5s-0.6-0.4-0.8-0.6
			c-0.1-0.2-0.2-0.4-0.2-0.7s0.1-0.6,0.3-0.8s0.5-0.3,0.8-0.3C115.7,38.7,116.1,38.9,116.5,39.3z"/>
		<path class="st3" d="M117.4,38.8h0.5v2c0,0.5,0,0.8,0.1,1c0.1,0.3,0.2,0.5,0.5,0.6c0.2,0.2,0.5,0.2,0.8,0.2s0.6-0.1,0.8-0.2
			c0.2-0.1,0.4-0.3,0.4-0.6c0.1-0.2,0.1-0.5,0.1-1v-2h0.6v2.1c0,0.6-0.1,1-0.2,1.3c-0.1,0.3-0.3,0.5-0.6,0.7s-0.6,0.3-1,0.3
			s-0.8-0.1-1-0.3c-0.3-0.2-0.5-0.4-0.6-0.7s-0.2-0.8-0.2-1.4v-2C117.6,38.8,117.4,38.8,117.4,38.8z"/>
		<path class="st3" d="M124.6,38.8h0.5v0.8c0.2-0.3,0.5-0.5,0.7-0.7c0.3-0.1,0.6-0.2,0.9-0.2c0.6,0,1.1,0.2,1.6,0.7
			c0.4,0.4,0.6,1,0.6,1.6s-0.2,1.2-0.6,1.6c-0.4,0.4-0.9,0.7-1.5,0.7c-0.3,0-0.7-0.1-0.9-0.2c-0.3-0.1-0.5-0.4-0.8-0.6v2.3h-0.5
			V38.8z M126.8,39.3c-0.5,0-0.9,0.2-1.2,0.5s-0.5,0.7-0.5,1.2c0,0.3,0.1,0.6,0.2,0.9c0.1,0.3,0.4,0.5,0.6,0.6
			c0.3,0.2,0.6,0.2,0.9,0.2c0.3,0,0.6-0.1,0.8-0.2c0.3-0.2,0.5-0.4,0.6-0.6c0.2-0.3,0.2-0.6,0.2-0.9c0-0.3-0.1-0.6-0.2-0.9
			c-0.2-0.3-0.4-0.5-0.6-0.6C127.4,39.3,127.1,39.3,126.8,39.3z"/>
		<path class="st3" d="M134.3,38.8v4.3h-0.5v-0.7c-0.2,0.3-0.5,0.5-0.8,0.6s-0.6,0.2-0.9,0.2c-0.6,0-1.1-0.2-1.5-0.7
			c-0.4-0.4-0.6-1-0.6-1.6s0.2-1.1,0.6-1.6c0.4-0.4,1-0.7,1.6-0.7c0.4,0,0.7,0.1,1,0.2c0.3,0.1,0.5,0.4,0.7,0.7v-0.8L134.3,38.8
			L134.3,38.8z M132.1,39.3c-0.3,0-0.6,0.1-0.8,0.2c-0.3,0.2-0.5,0.4-0.6,0.6c-0.2,0.3-0.2,0.6-0.2,0.9c0,0.3,0.1,0.6,0.2,0.9
			c0.2,0.3,0.4,0.5,0.6,0.6c0.3,0.2,0.5,0.2,0.8,0.2s0.6-0.1,0.9-0.2c0.3-0.2,0.5-0.4,0.6-0.6c0.1-0.3,0.2-0.6,0.2-0.9
			c0-0.5-0.2-0.9-0.5-1.2C133,39.4,132.6,39.3,132.1,39.3z"/>
		<path class="st3" d="M135.5,37.2h0.5v5.9h-0.5V37.2z"/>
		<path class="st3" d="M141.4,38.8v4.3h-0.5v-0.7c-0.2,0.3-0.5,0.5-0.8,0.6s-0.6,0.2-0.9,0.2c-0.6,0-1.1-0.2-1.5-0.7
			c-0.4-0.4-0.6-1-0.6-1.6s0.2-1.1,0.6-1.6c0.4-0.4,1-0.7,1.6-0.7c0.4,0,0.7,0.1,1,0.2c0.3,0.1,0.5,0.4,0.7,0.7v-0.8L141.4,38.8
			L141.4,38.8z M139.2,39.3c-0.3,0-0.6,0.1-0.8,0.2c-0.3,0.2-0.5,0.4-0.6,0.6c-0.2,0.3-0.2,0.6-0.2,0.9c0,0.3,0.1,0.6,0.2,0.9
			c0.2,0.3,0.4,0.5,0.6,0.6c0.3,0.2,0.5,0.2,0.8,0.2s0.6-0.1,0.9-0.2c0.3-0.2,0.5-0.4,0.6-0.6c0.1-0.3,0.2-0.6,0.2-0.9
			c0-0.5-0.2-0.9-0.5-1.2C140.1,39.4,139.7,39.3,139.2,39.3z"/>
		<path class="st3" d="M146.9,37.2v5.9h-0.5v-0.7c-0.2,0.3-0.5,0.5-0.8,0.6s-0.6,0.2-0.9,0.2c-0.6,0-1.1-0.2-1.5-0.7
			c-0.4-0.4-0.6-1-0.6-1.6s0.2-1.1,0.6-1.6c0.4-0.4,1-0.7,1.6-0.7c0.4,0,0.7,0.1,1,0.2c0.3,0.1,0.5,0.4,0.7,0.7v-2.3H146.9z
			 M144.7,39.3c-0.3,0-0.6,0.1-0.8,0.2c-0.3,0.2-0.5,0.4-0.6,0.6c-0.2,0.3-0.2,0.6-0.2,0.9c0,0.3,0.1,0.6,0.2,0.9
			c0.2,0.3,0.4,0.5,0.6,0.6c0.3,0.2,0.5,0.2,0.8,0.2s0.6-0.1,0.9-0.2c0.3-0.2,0.5-0.4,0.6-0.6c0.1-0.3,0.2-0.6,0.2-0.9
			c0-0.5-0.2-0.9-0.5-1.2C145.6,39.4,145.2,39.3,144.7,39.3z"/>
		<path class="st3" d="M152.4,38.8v4.3h-0.5v-0.7c-0.2,0.3-0.5,0.5-0.8,0.6s-0.6,0.2-0.9,0.2c-0.6,0-1.1-0.2-1.5-0.7
			c-0.4-0.4-0.6-1-0.6-1.6s0.2-1.1,0.6-1.6c0.4-0.4,1-0.7,1.6-0.7c0.4,0,0.7,0.1,1,0.2c0.3,0.1,0.5,0.4,0.7,0.7v-0.8L152.4,38.8
			L152.4,38.8z M150.2,39.3c-0.3,0-0.6,0.1-0.8,0.2c-0.3,0.2-0.5,0.4-0.6,0.6c-0.2,0.3-0.2,0.6-0.2,0.9c0,0.3,0.1,0.6,0.2,0.9
			c0.2,0.3,0.4,0.5,0.6,0.6c0.3,0.2,0.5,0.2,0.8,0.2s0.6-0.1,0.9-0.2c0.3-0.2,0.5-0.4,0.6-0.6c0.1-0.3,0.2-0.6,0.2-0.9
			c0-0.5-0.2-0.9-0.5-1.2C151.1,39.4,150.7,39.3,150.2,39.3z"/>
		<path class="st3" d="M153.4,38.8h0.6v0.6c0.2-0.2,0.3-0.4,0.5-0.6c0.2-0.1,0.4-0.2,0.6-0.2c0.2,0,0.3,0,0.5,0.1l-0.3,0.5
			c-0.1-0.1-0.2-0.1-0.3-0.1c-0.2,0-0.4,0.1-0.5,0.2c-0.2,0.1-0.3,0.4-0.4,0.7c-0.1,0.2-0.1,0.7-0.1,1.5v1.4h-0.6V38.8z"/>
	</g>
</g>
</svg>
